M48
INCH,TZ
T1C0.031
T2C0.036
T3C0.039
T4C0.040
T5C0.045
T6C0.070
%
G90
G05
T1
X4.25Y-2.85
X4.25Y-2.95
X4.25Y-3.05
X4.75Y-4.15
X4.85Y-4.15
X4.95Y-4.15
X5.7Y-2.55
X5.8Y-2.55
X5.9Y-2.55
T2
X4.35Y-3.3
X4.35Y-3.8
X4.45Y-3.3
X4.45Y-3.8
X4.55Y-3.3
X4.55Y-3.8
X4.65Y-3.3
X4.65Y-3.8
X4.75Y-3.3
X4.75Y-3.8
T3
X4.25Y-2.55
X4.25Y-3.95
X4.25Y-4.35
X4.4Y-3.95
X4.4Y-4.35
X4.45Y-2.7
X4.45Y-2.85
X4.55Y-3.
X4.55Y-3.95
X4.55Y-4.35
X4.65Y-2.55
X4.65Y-3.15
X4.85Y-2.7
X4.85Y-2.85
X4.85Y-3.95
X4.95Y-3.
X5.05Y-3.15
X5.05Y-3.4
X5.05Y-3.8
X5.25Y-3.95
T4
X5.49Y-2.805
X5.49Y-2.905
X5.49Y-3.005
X5.49Y-3.105
X5.49Y-3.205
X5.49Y-3.305
X5.49Y-3.405
X5.49Y-3.505
X5.49Y-3.605
X5.49Y-3.705
X5.49Y-3.805
X5.49Y-3.905
X5.49Y-4.005
X5.49Y-4.105
X5.49Y-4.205
X6.09Y-2.805
X6.09Y-2.905
X6.09Y-3.005
X6.09Y-3.105
X6.09Y-3.205
X6.09Y-3.305
X6.09Y-3.405
X6.09Y-3.505
X6.09Y-3.605
X6.09Y-3.705
X6.09Y-3.805
X6.09Y-3.905
X6.09Y-4.005
X6.09Y-4.105
X6.09Y-4.205
T5
X4.95Y-2.55
X5.35Y-2.75
T6
X5.49Y-2.705
X5.49Y-4.305
X6.09Y-2.705
X6.09Y-4.305
T0
M30
