G04 #@! TF.FileFunction,Legend,Top*
%FSLAX46Y46*%
G04 Gerber Fmt 4.6, Leading zero omitted, Abs format (unit mm)*
G04 Created by KiCad (PCBNEW 4.0.2-4+6225~38~ubuntu14.04.1-stable) date 06 مار, 2016 CET 03:30:18 م*
%MOMM*%
G01*
G04 APERTURE LIST*
%ADD10C,0.100000*%
%ADD11C,0.150000*%
G04 APERTURE END LIST*
D10*
D11*
X142017715Y-71699381D02*
X141446286Y-71699381D01*
X141732000Y-71699381D02*
X141732000Y-70699381D01*
X141636762Y-70842238D01*
X141541524Y-70937476D01*
X141446286Y-70985095D01*
X140716000Y-72517000D02*
X140716000Y-69977000D01*
X140716000Y-69977000D02*
X138176000Y-69977000D01*
X138176000Y-69977000D02*
X138176000Y-72517000D01*
X140716000Y-72517000D02*
X140716000Y-108077000D01*
X140716000Y-108077000D02*
X138176000Y-108077000D01*
X138176000Y-108077000D02*
X138176000Y-72517000D01*
X138176000Y-72517000D02*
X140716000Y-72517000D01*
X155956000Y-72517000D02*
X155956000Y-69977000D01*
X155956000Y-69977000D02*
X153416000Y-69977000D01*
X153416000Y-69977000D02*
X153416000Y-72517000D01*
X155956000Y-72517000D02*
X155956000Y-108077000D01*
X155956000Y-108077000D02*
X153416000Y-108077000D01*
X153416000Y-108077000D02*
X153416000Y-72517000D01*
X153416000Y-72517000D02*
X155956000Y-72517000D01*
X105410000Y-98298000D02*
X105410000Y-82042000D01*
X125730000Y-82042000D02*
X125730000Y-98298000D01*
X105410000Y-82042000D02*
X125730000Y-82042000D01*
X105410000Y-98298000D02*
X125730000Y-98298000D01*
X109220000Y-84455000D02*
X113665000Y-84455000D01*
X113030000Y-89535000D02*
X114300000Y-84455000D01*
X107315000Y-89535000D02*
X108585000Y-84455000D01*
X106680000Y-95885000D02*
X111125000Y-95885000D01*
X107315000Y-90805000D02*
X106045000Y-95885000D01*
X113030000Y-90805000D02*
X111760000Y-95885000D01*
X125095000Y-95250000D02*
G75*
G03X125095000Y-95250000I-635000J0D01*
G01*
X119380000Y-84455000D02*
X123825000Y-84455000D01*
X116840000Y-95885000D02*
X121285000Y-95885000D01*
X123190000Y-90805000D02*
X121920000Y-95885000D01*
X116205000Y-95885000D02*
X117475000Y-90805000D01*
X123190000Y-89535000D02*
X124460000Y-84455000D01*
X117475000Y-89535000D02*
X118745000Y-84455000D01*
X118110000Y-90170000D02*
X122555000Y-90170000D01*
X108204000Y-90170000D02*
X112268000Y-90170000D01*
X114935000Y-95250000D02*
G75*
G03X114935000Y-95250000I-635000J0D01*
G01*
X108077000Y-90170000D02*
X112395000Y-90170000D01*
X106953010Y-72742305D02*
G75*
G03X106250000Y-73230000I996990J-2187695D01*
G01*
X106953010Y-77117695D02*
G75*
G02X106250000Y-76630000I996990J2187695D01*
G01*
X106250000Y-73230000D02*
X106250000Y-76630000D01*
X108943127Y-72745121D02*
G75*
G02X110350000Y-74930000I-993127J-2184879D01*
G01*
X108943127Y-77114879D02*
G75*
G03X110350000Y-74930000I-993127J2184879D01*
G01*
X125377695Y-104413010D02*
G75*
G03X124890000Y-103710000I-2187695J-996990D01*
G01*
X121002305Y-104413010D02*
G75*
G02X121490000Y-103710000I2187695J-996990D01*
G01*
X124890000Y-103710000D02*
X121490000Y-103710000D01*
X125374879Y-106403127D02*
G75*
G02X123190000Y-107810000I-2184879J993127D01*
G01*
X121005121Y-106403127D02*
G75*
G03X123190000Y-107810000I2184879J993127D01*
G01*
X110490000Y-63500000D02*
X115570000Y-63500000D01*
X115570000Y-63500000D02*
X115570000Y-66040000D01*
X115570000Y-66040000D02*
X110490000Y-66040000D01*
X110490000Y-66040000D02*
X110490000Y-63500000D01*
X110490000Y-64770000D02*
X109220000Y-64770000D01*
X115570000Y-64770000D02*
X116840000Y-64770000D01*
X120650000Y-69850000D02*
X115570000Y-69850000D01*
X115570000Y-69850000D02*
X115570000Y-67310000D01*
X115570000Y-67310000D02*
X120650000Y-67310000D01*
X120650000Y-67310000D02*
X120650000Y-69850000D01*
X120650000Y-68580000D02*
X121920000Y-68580000D01*
X115570000Y-68580000D02*
X114300000Y-68580000D01*
X125730000Y-81280000D02*
X120650000Y-81280000D01*
X120650000Y-81280000D02*
X120650000Y-78740000D01*
X120650000Y-78740000D02*
X125730000Y-78740000D01*
X125730000Y-78740000D02*
X125730000Y-81280000D01*
X125730000Y-80010000D02*
X127000000Y-80010000D01*
X120650000Y-80010000D02*
X119380000Y-80010000D01*
X127000000Y-93980000D02*
X127000000Y-88900000D01*
X127000000Y-88900000D02*
X129540000Y-88900000D01*
X129540000Y-88900000D02*
X129540000Y-93980000D01*
X129540000Y-93980000D02*
X127000000Y-93980000D01*
X128270000Y-93980000D02*
X128270000Y-95250000D01*
X128270000Y-88900000D02*
X128270000Y-87630000D01*
X114300000Y-107950000D02*
X114300000Y-102870000D01*
X114300000Y-102870000D02*
X116840000Y-102870000D01*
X116840000Y-102870000D02*
X116840000Y-107950000D01*
X116840000Y-107950000D02*
X114300000Y-107950000D01*
X115570000Y-107950000D02*
X115570000Y-109220000D01*
X115570000Y-102870000D02*
X115570000Y-101600000D01*
X106680000Y-107950000D02*
X106680000Y-102870000D01*
X106680000Y-102870000D02*
X109220000Y-102870000D01*
X109220000Y-102870000D02*
X109220000Y-107950000D01*
X109220000Y-107950000D02*
X106680000Y-107950000D01*
X107950000Y-107950000D02*
X107950000Y-109220000D01*
X107950000Y-102870000D02*
X107950000Y-101600000D01*
X110490000Y-107950000D02*
X110490000Y-102870000D01*
X110490000Y-102870000D02*
X113030000Y-102870000D01*
X113030000Y-102870000D02*
X113030000Y-107950000D01*
X113030000Y-107950000D02*
X110490000Y-107950000D01*
X111760000Y-107950000D02*
X111760000Y-109220000D01*
X111760000Y-102870000D02*
X111760000Y-101600000D01*
X123190000Y-77470000D02*
X118110000Y-77470000D01*
X118110000Y-77470000D02*
X118110000Y-74930000D01*
X118110000Y-74930000D02*
X123190000Y-74930000D01*
X123190000Y-74930000D02*
X123190000Y-77470000D01*
X123190000Y-76200000D02*
X124460000Y-76200000D01*
X118110000Y-76200000D02*
X116840000Y-76200000D01*
X120650000Y-73660000D02*
X115570000Y-73660000D01*
X115570000Y-73660000D02*
X115570000Y-71120000D01*
X115570000Y-71120000D02*
X120650000Y-71120000D01*
X120650000Y-71120000D02*
X120650000Y-73660000D01*
X120650000Y-72390000D02*
X121920000Y-72390000D01*
X115570000Y-72390000D02*
X114300000Y-72390000D01*
X130810000Y-101600000D02*
X125730000Y-101600000D01*
X125730000Y-101600000D02*
X125730000Y-99060000D01*
X125730000Y-99060000D02*
X130810000Y-99060000D01*
X130810000Y-99060000D02*
X130810000Y-101600000D01*
X130810000Y-100330000D02*
X132080000Y-100330000D01*
X125730000Y-100330000D02*
X124460000Y-100330000D01*
X137160000Y-61595000D02*
X137160000Y-73025000D01*
X137160000Y-73025000D02*
X136525000Y-73660000D01*
X136525000Y-73660000D02*
X125095000Y-73660000D01*
X125095000Y-73660000D02*
X124460000Y-73025000D01*
X124460000Y-73025000D02*
X124460000Y-61595000D01*
X125095000Y-60960000D02*
X136525000Y-60960000D01*
X136525000Y-60960000D02*
X137160000Y-61595000D01*
X124460000Y-61595000D02*
X125095000Y-60960000D01*
X143565714Y-61222381D02*
X143565714Y-60222381D01*
X143946667Y-60222381D01*
X144041905Y-60270000D01*
X144089524Y-60317619D01*
X144137143Y-60412857D01*
X144137143Y-60555714D01*
X144089524Y-60650952D01*
X144041905Y-60698571D01*
X143946667Y-60746190D01*
X143565714Y-60746190D01*
X145041905Y-60222381D02*
X144565714Y-60222381D01*
X144518095Y-60698571D01*
X144565714Y-60650952D01*
X144660952Y-60603333D01*
X144899048Y-60603333D01*
X144994286Y-60650952D01*
X145041905Y-60698571D01*
X145089524Y-60793810D01*
X145089524Y-61031905D01*
X145041905Y-61127143D01*
X144994286Y-61174762D01*
X144899048Y-61222381D01*
X144660952Y-61222381D01*
X144565714Y-61174762D01*
X144518095Y-61127143D01*
X145708571Y-60222381D02*
X145803810Y-60222381D01*
X145899048Y-60270000D01*
X145946667Y-60317619D01*
X145994286Y-60412857D01*
X146041905Y-60603333D01*
X146041905Y-60841429D01*
X145994286Y-61031905D01*
X145946667Y-61127143D01*
X145899048Y-61174762D01*
X145803810Y-61222381D01*
X145708571Y-61222381D01*
X145613333Y-61174762D01*
X145565714Y-61127143D01*
X145518095Y-61031905D01*
X145470476Y-60841429D01*
X145470476Y-60603333D01*
X145518095Y-60412857D01*
X145565714Y-60317619D01*
X145613333Y-60270000D01*
X145708571Y-60222381D01*
X142438381Y-88368095D02*
X141438381Y-88368095D01*
X141438381Y-87987142D01*
X141486000Y-87891904D01*
X141533619Y-87844285D01*
X141628857Y-87796666D01*
X141771714Y-87796666D01*
X141866952Y-87844285D01*
X141914571Y-87891904D01*
X141962190Y-87987142D01*
X141962190Y-88368095D01*
X142438381Y-86844285D02*
X142438381Y-87415714D01*
X142438381Y-87130000D02*
X141438381Y-87130000D01*
X141581238Y-87225238D01*
X141676476Y-87320476D01*
X141724095Y-87415714D01*
X152598381Y-88368095D02*
X151598381Y-88368095D01*
X151598381Y-87987142D01*
X151646000Y-87891904D01*
X151693619Y-87844285D01*
X151788857Y-87796666D01*
X151931714Y-87796666D01*
X152026952Y-87844285D01*
X152074571Y-87891904D01*
X152122190Y-87987142D01*
X152122190Y-88368095D01*
X151693619Y-87415714D02*
X151646000Y-87368095D01*
X151598381Y-87272857D01*
X151598381Y-87034761D01*
X151646000Y-86939523D01*
X151693619Y-86891904D01*
X151788857Y-86844285D01*
X151884095Y-86844285D01*
X152026952Y-86891904D01*
X152598381Y-87463333D01*
X152598381Y-86844285D01*
X113998571Y-80684667D02*
X114474762Y-80684667D01*
X113903333Y-80970381D02*
X114236666Y-79970381D01*
X114570000Y-80970381D01*
X115236667Y-80446571D02*
X114903333Y-80446571D01*
X114903333Y-80970381D02*
X114903333Y-79970381D01*
X115379524Y-79970381D01*
X116093810Y-80446571D02*
X115760476Y-80446571D01*
X115760476Y-80970381D02*
X115760476Y-79970381D01*
X116236667Y-79970381D01*
X117141429Y-80970381D02*
X116570000Y-80970381D01*
X116855714Y-80970381D02*
X116855714Y-79970381D01*
X116760476Y-80113238D01*
X116665238Y-80208476D01*
X116570000Y-80256095D01*
X112497619Y-72485238D02*
X112450000Y-72580476D01*
X112354762Y-72675714D01*
X112211905Y-72818571D01*
X112164286Y-72913810D01*
X112164286Y-73009048D01*
X112402381Y-72961429D02*
X112354762Y-73056667D01*
X112259524Y-73151905D01*
X112069048Y-73199524D01*
X111735714Y-73199524D01*
X111545238Y-73151905D01*
X111450000Y-73056667D01*
X111402381Y-72961429D01*
X111402381Y-72770952D01*
X111450000Y-72675714D01*
X111545238Y-72580476D01*
X111735714Y-72532857D01*
X112069048Y-72532857D01*
X112259524Y-72580476D01*
X112354762Y-72675714D01*
X112402381Y-72770952D01*
X112402381Y-72961429D01*
X112402381Y-71580476D02*
X112402381Y-72151905D01*
X112402381Y-71866191D02*
X111402381Y-71866191D01*
X111545238Y-71961429D01*
X111640476Y-72056667D01*
X111688095Y-72151905D01*
X125634762Y-109957619D02*
X125539524Y-109910000D01*
X125444286Y-109814762D01*
X125301429Y-109671905D01*
X125206190Y-109624286D01*
X125110952Y-109624286D01*
X125158571Y-109862381D02*
X125063333Y-109814762D01*
X124968095Y-109719524D01*
X124920476Y-109529048D01*
X124920476Y-109195714D01*
X124968095Y-109005238D01*
X125063333Y-108910000D01*
X125158571Y-108862381D01*
X125349048Y-108862381D01*
X125444286Y-108910000D01*
X125539524Y-109005238D01*
X125587143Y-109195714D01*
X125587143Y-109529048D01*
X125539524Y-109719524D01*
X125444286Y-109814762D01*
X125349048Y-109862381D01*
X125158571Y-109862381D01*
X125968095Y-108957619D02*
X126015714Y-108910000D01*
X126110952Y-108862381D01*
X126349048Y-108862381D01*
X126444286Y-108910000D01*
X126491905Y-108957619D01*
X126539524Y-109052857D01*
X126539524Y-109148095D01*
X126491905Y-109290952D01*
X125920476Y-109862381D01*
X126539524Y-109862381D01*
X113112254Y-61722261D02*
X112778920Y-61246070D01*
X112540825Y-61722261D02*
X112540825Y-60722261D01*
X112921778Y-60722261D01*
X113017016Y-60769880D01*
X113064635Y-60817499D01*
X113112254Y-60912737D01*
X113112254Y-61055594D01*
X113064635Y-61150832D01*
X113017016Y-61198451D01*
X112921778Y-61246070D01*
X112540825Y-61246070D01*
X114064635Y-61722261D02*
X113493206Y-61722261D01*
X113778920Y-61722261D02*
X113778920Y-60722261D01*
X113683682Y-60865118D01*
X113588444Y-60960356D01*
X113493206Y-61007975D01*
X117694414Y-72532501D02*
X117361080Y-72056310D01*
X117122985Y-72532501D02*
X117122985Y-71532501D01*
X117503938Y-71532501D01*
X117599176Y-71580120D01*
X117646795Y-71627739D01*
X117694414Y-71722977D01*
X117694414Y-71865834D01*
X117646795Y-71961072D01*
X117599176Y-72008691D01*
X117503938Y-72056310D01*
X117122985Y-72056310D01*
X118075366Y-71627739D02*
X118122985Y-71580120D01*
X118218223Y-71532501D01*
X118456319Y-71532501D01*
X118551557Y-71580120D01*
X118599176Y-71627739D01*
X118646795Y-71722977D01*
X118646795Y-71818215D01*
X118599176Y-71961072D01*
X118027747Y-72532501D01*
X118646795Y-72532501D01*
X122774414Y-83962501D02*
X122441080Y-83486310D01*
X122202985Y-83962501D02*
X122202985Y-82962501D01*
X122583938Y-82962501D01*
X122679176Y-83010120D01*
X122726795Y-83057739D01*
X122774414Y-83152977D01*
X122774414Y-83295834D01*
X122726795Y-83391072D01*
X122679176Y-83438691D01*
X122583938Y-83486310D01*
X122202985Y-83486310D01*
X123107747Y-82962501D02*
X123726795Y-82962501D01*
X123393461Y-83343453D01*
X123536319Y-83343453D01*
X123631557Y-83391072D01*
X123679176Y-83438691D01*
X123726795Y-83533930D01*
X123726795Y-83772025D01*
X123679176Y-83867263D01*
X123631557Y-83914882D01*
X123536319Y-83962501D01*
X123250604Y-83962501D01*
X123155366Y-83914882D01*
X123107747Y-83867263D01*
X125222261Y-91357746D02*
X124746070Y-91691080D01*
X125222261Y-91929175D02*
X124222261Y-91929175D01*
X124222261Y-91548222D01*
X124269880Y-91452984D01*
X124317499Y-91405365D01*
X124412737Y-91357746D01*
X124555594Y-91357746D01*
X124650832Y-91405365D01*
X124698451Y-91452984D01*
X124746070Y-91548222D01*
X124746070Y-91929175D01*
X124555594Y-90500603D02*
X125222261Y-90500603D01*
X124174642Y-90738699D02*
X124888928Y-90976794D01*
X124888928Y-90357746D01*
X112522261Y-105327746D02*
X112046070Y-105661080D01*
X112522261Y-105899175D02*
X111522261Y-105899175D01*
X111522261Y-105518222D01*
X111569880Y-105422984D01*
X111617499Y-105375365D01*
X111712737Y-105327746D01*
X111855594Y-105327746D01*
X111950832Y-105375365D01*
X111998451Y-105422984D01*
X112046070Y-105518222D01*
X112046070Y-105899175D01*
X111522261Y-104422984D02*
X111522261Y-104899175D01*
X111998451Y-104946794D01*
X111950832Y-104899175D01*
X111903213Y-104803937D01*
X111903213Y-104565841D01*
X111950832Y-104470603D01*
X111998451Y-104422984D01*
X112093690Y-104375365D01*
X112331785Y-104375365D01*
X112427023Y-104422984D01*
X112474642Y-104470603D01*
X112522261Y-104565841D01*
X112522261Y-104803937D01*
X112474642Y-104899175D01*
X112427023Y-104946794D01*
X104902261Y-105327746D02*
X104426070Y-105661080D01*
X104902261Y-105899175D02*
X103902261Y-105899175D01*
X103902261Y-105518222D01*
X103949880Y-105422984D01*
X103997499Y-105375365D01*
X104092737Y-105327746D01*
X104235594Y-105327746D01*
X104330832Y-105375365D01*
X104378451Y-105422984D01*
X104426070Y-105518222D01*
X104426070Y-105899175D01*
X103902261Y-104470603D02*
X103902261Y-104661080D01*
X103949880Y-104756318D01*
X103997499Y-104803937D01*
X104140356Y-104899175D01*
X104330832Y-104946794D01*
X104711785Y-104946794D01*
X104807023Y-104899175D01*
X104854642Y-104851556D01*
X104902261Y-104756318D01*
X104902261Y-104565841D01*
X104854642Y-104470603D01*
X104807023Y-104422984D01*
X104711785Y-104375365D01*
X104473690Y-104375365D01*
X104378451Y-104422984D01*
X104330832Y-104470603D01*
X104283213Y-104565841D01*
X104283213Y-104756318D01*
X104330832Y-104851556D01*
X104378451Y-104899175D01*
X104473690Y-104946794D01*
X108712261Y-105327746D02*
X108236070Y-105661080D01*
X108712261Y-105899175D02*
X107712261Y-105899175D01*
X107712261Y-105518222D01*
X107759880Y-105422984D01*
X107807499Y-105375365D01*
X107902737Y-105327746D01*
X108045594Y-105327746D01*
X108140832Y-105375365D01*
X108188451Y-105422984D01*
X108236070Y-105518222D01*
X108236070Y-105899175D01*
X107712261Y-104994413D02*
X107712261Y-104327746D01*
X108712261Y-104756318D01*
X120234414Y-80152501D02*
X119901080Y-79676310D01*
X119662985Y-80152501D02*
X119662985Y-79152501D01*
X120043938Y-79152501D01*
X120139176Y-79200120D01*
X120186795Y-79247739D01*
X120234414Y-79342977D01*
X120234414Y-79485834D01*
X120186795Y-79581072D01*
X120139176Y-79628691D01*
X120043938Y-79676310D01*
X119662985Y-79676310D01*
X120805842Y-79581072D02*
X120710604Y-79533453D01*
X120662985Y-79485834D01*
X120615366Y-79390596D01*
X120615366Y-79342977D01*
X120662985Y-79247739D01*
X120710604Y-79200120D01*
X120805842Y-79152501D01*
X120996319Y-79152501D01*
X121091557Y-79200120D01*
X121139176Y-79247739D01*
X121186795Y-79342977D01*
X121186795Y-79390596D01*
X121139176Y-79485834D01*
X121091557Y-79533453D01*
X120996319Y-79581072D01*
X120805842Y-79581072D01*
X120710604Y-79628691D01*
X120662985Y-79676310D01*
X120615366Y-79771549D01*
X120615366Y-79962025D01*
X120662985Y-80057263D01*
X120710604Y-80104882D01*
X120805842Y-80152501D01*
X120996319Y-80152501D01*
X121091557Y-80104882D01*
X121139176Y-80057263D01*
X121186795Y-79962025D01*
X121186795Y-79771549D01*
X121139176Y-79676310D01*
X121091557Y-79628691D01*
X120996319Y-79581072D01*
X117694414Y-76342501D02*
X117361080Y-75866310D01*
X117122985Y-76342501D02*
X117122985Y-75342501D01*
X117503938Y-75342501D01*
X117599176Y-75390120D01*
X117646795Y-75437739D01*
X117694414Y-75532977D01*
X117694414Y-75675834D01*
X117646795Y-75771072D01*
X117599176Y-75818691D01*
X117503938Y-75866310D01*
X117122985Y-75866310D01*
X118170604Y-76342501D02*
X118361080Y-76342501D01*
X118456319Y-76294882D01*
X118503938Y-76247263D01*
X118599176Y-76104406D01*
X118646795Y-75913930D01*
X118646795Y-75532977D01*
X118599176Y-75437739D01*
X118551557Y-75390120D01*
X118456319Y-75342501D01*
X118265842Y-75342501D01*
X118170604Y-75390120D01*
X118122985Y-75437739D01*
X118075366Y-75532977D01*
X118075366Y-75771072D01*
X118122985Y-75866310D01*
X118170604Y-75913930D01*
X118265842Y-75961549D01*
X118456319Y-75961549D01*
X118551557Y-75913930D01*
X118599176Y-75866310D01*
X118646795Y-75771072D01*
X127378223Y-104282501D02*
X127044889Y-103806310D01*
X126806794Y-104282501D02*
X126806794Y-103282501D01*
X127187747Y-103282501D01*
X127282985Y-103330120D01*
X127330604Y-103377739D01*
X127378223Y-103472977D01*
X127378223Y-103615834D01*
X127330604Y-103711072D01*
X127282985Y-103758691D01*
X127187747Y-103806310D01*
X126806794Y-103806310D01*
X128330604Y-104282501D02*
X127759175Y-104282501D01*
X128044889Y-104282501D02*
X128044889Y-103282501D01*
X127949651Y-103425358D01*
X127854413Y-103520596D01*
X127759175Y-103568215D01*
X128949651Y-103282501D02*
X129044890Y-103282501D01*
X129140128Y-103330120D01*
X129187747Y-103377739D01*
X129235366Y-103472977D01*
X129282985Y-103663453D01*
X129282985Y-103901549D01*
X129235366Y-104092025D01*
X129187747Y-104187263D01*
X129140128Y-104234882D01*
X129044890Y-104282501D01*
X128949651Y-104282501D01*
X128854413Y-104234882D01*
X128806794Y-104187263D01*
X128759175Y-104092025D01*
X128711556Y-103901549D01*
X128711556Y-103663453D01*
X128759175Y-103472977D01*
X128806794Y-103377739D01*
X128854413Y-103330120D01*
X128949651Y-103282501D01*
X130746667Y-62634762D02*
X130889524Y-62682381D01*
X131127620Y-62682381D01*
X131222858Y-62634762D01*
X131270477Y-62587143D01*
X131318096Y-62491905D01*
X131318096Y-62396667D01*
X131270477Y-62301429D01*
X131222858Y-62253810D01*
X131127620Y-62206190D01*
X130937143Y-62158571D01*
X130841905Y-62110952D01*
X130794286Y-62063333D01*
X130746667Y-61968095D01*
X130746667Y-61872857D01*
X130794286Y-61777619D01*
X130841905Y-61730000D01*
X130937143Y-61682381D01*
X131175239Y-61682381D01*
X131318096Y-61730000D01*
X131651429Y-61682381D02*
X131889524Y-62682381D01*
X132080001Y-61968095D01*
X132270477Y-62682381D01*
X132508572Y-61682381D01*
X133413334Y-62682381D02*
X132841905Y-62682381D01*
X133127619Y-62682381D02*
X133127619Y-61682381D01*
X133032381Y-61825238D01*
X132937143Y-61920476D01*
X132841905Y-61968095D01*
M02*
