G04 #@! TF.FileFunction,Copper,L1,Top,Signal*
%FSLAX46Y46*%
G04 Gerber Fmt 4.6, Leading zero omitted, Abs format (unit mm)*
G04 Created by KiCad (PCBNEW 4.0.2-4+6225~38~ubuntu14.04.1-stable) date 06 مار, 2016 CET 03:30:18 م*
%MOMM*%
G01*
G04 APERTURE LIST*
%ADD10C,0.100000*%
%ADD11C,1.524000*%
%ADD12O,2.032000X1.727200*%
%ADD13C,2.540000*%
%ADD14R,2.032000X2.032000*%
%ADD15C,2.032000*%
%ADD16C,1.998980*%
%ADD17C,0.250000*%
%ADD18C,0.254000*%
G04 APERTURE END LIST*
D10*
D11*
X147320000Y-64770000D03*
X149860000Y-64770000D03*
X144780000Y-64770000D03*
D12*
X139446000Y-71247000D03*
X139446000Y-73787000D03*
X139446000Y-76327000D03*
X139446000Y-78867000D03*
X139446000Y-81407000D03*
X139446000Y-83947000D03*
X139446000Y-86487000D03*
X139446000Y-89027000D03*
X139446000Y-91567000D03*
X139446000Y-94107000D03*
X139446000Y-96647000D03*
X139446000Y-99187000D03*
X139446000Y-101727000D03*
X139446000Y-104267000D03*
X139446000Y-106807000D03*
X154686000Y-71247000D03*
X154686000Y-73787000D03*
X154686000Y-76327000D03*
X154686000Y-78867000D03*
X154686000Y-81407000D03*
X154686000Y-83947000D03*
X154686000Y-86487000D03*
X154686000Y-89027000D03*
X154686000Y-91567000D03*
X154686000Y-94107000D03*
X154686000Y-96647000D03*
X154686000Y-99187000D03*
X154686000Y-101727000D03*
X154686000Y-104267000D03*
X154686000Y-106807000D03*
D13*
X139446000Y-68707000D03*
X139446000Y-109347000D03*
X154686000Y-109347000D03*
X154686000Y-68707000D03*
D14*
X110490000Y-96520000D03*
D15*
X113030000Y-96520000D03*
X115570000Y-96520000D03*
X118110000Y-96520000D03*
X113030000Y-83820000D03*
X110490000Y-83820000D03*
X120650000Y-96520000D03*
X118110000Y-83820000D03*
X120650000Y-83820000D03*
X115570000Y-83820000D03*
D11*
X107950000Y-74930000D03*
X107950000Y-77470000D03*
X107950000Y-72390000D03*
X123190000Y-105410000D03*
X120650000Y-105410000D03*
X125730000Y-105410000D03*
D16*
X107950000Y-64770000D03*
X118110000Y-64770000D03*
X123190000Y-68580000D03*
X113030000Y-68580000D03*
X128270000Y-80010000D03*
X118110000Y-80010000D03*
X128270000Y-96520000D03*
X128270000Y-86360000D03*
X115570000Y-110490000D03*
X115570000Y-100330000D03*
X107950000Y-110490000D03*
X107950000Y-100330000D03*
X111760000Y-110490000D03*
X111760000Y-100330000D03*
X125730000Y-76200000D03*
X115570000Y-76200000D03*
X123190000Y-72390000D03*
X113030000Y-72390000D03*
X133350000Y-100330000D03*
X123190000Y-100330000D03*
D13*
X125730000Y-64770000D03*
X135890000Y-69850000D03*
D17*
X135890000Y-69850000D02*
X135890000Y-64770000D01*
X135890000Y-64770000D02*
X144780000Y-64770000D01*
X139446000Y-78867000D02*
X139446000Y-78486000D01*
X139446000Y-78486000D02*
X135890000Y-74930000D01*
X135890000Y-74930000D02*
X135890000Y-69850000D01*
X139446000Y-81407000D02*
X137287000Y-81407000D01*
X125730000Y-69850000D02*
X125730000Y-64770000D01*
X137287000Y-81407000D02*
X125730000Y-69850000D01*
X125730000Y-64770000D02*
X118110000Y-64770000D01*
X139446000Y-83947000D02*
X143383000Y-83947000D01*
X147320000Y-80010000D02*
X147320000Y-64770000D01*
X143383000Y-83947000D02*
X147320000Y-80010000D01*
X123190000Y-68580000D02*
X123190000Y-69850000D01*
X134747000Y-86487000D02*
X139446000Y-86487000D01*
X134620000Y-86360000D02*
X134747000Y-86487000D01*
X134620000Y-81280000D02*
X134620000Y-86360000D01*
X123190000Y-69850000D02*
X134620000Y-81280000D01*
X139319000Y-88900000D02*
X133350000Y-88900000D01*
X124460000Y-72390000D02*
X133350000Y-81280000D01*
X133350000Y-81280000D02*
X133350000Y-88900000D01*
X124460000Y-72390000D02*
X123190000Y-72390000D01*
X139319000Y-88900000D02*
X139446000Y-89027000D01*
X125730000Y-76200000D02*
X127000000Y-76200000D01*
X132207000Y-91567000D02*
X139446000Y-91567000D01*
X132080000Y-91440000D02*
X132207000Y-91567000D01*
X132080000Y-81280000D02*
X132080000Y-91440000D01*
X127000000Y-76200000D02*
X132080000Y-81280000D01*
X128270000Y-80010000D02*
X128270000Y-83820000D01*
X130937000Y-94107000D02*
X139446000Y-94107000D01*
X130810000Y-93980000D02*
X130937000Y-94107000D01*
X130810000Y-86360000D02*
X130810000Y-93980000D01*
X128270000Y-83820000D02*
X130810000Y-86360000D01*
X128270000Y-96520000D02*
X139319000Y-96520000D01*
X139319000Y-96520000D02*
X139446000Y-96647000D01*
X133350000Y-100330000D02*
X134620000Y-100330000D01*
X135763000Y-99187000D02*
X139446000Y-99187000D01*
X134620000Y-100330000D02*
X135763000Y-99187000D01*
X115570000Y-110490000D02*
X134620000Y-110490000D01*
X138303000Y-102870000D02*
X139446000Y-101727000D01*
X137160000Y-102870000D02*
X138303000Y-102870000D01*
X134620000Y-105410000D02*
X137160000Y-102870000D01*
X134620000Y-110490000D02*
X134620000Y-105410000D01*
X111760000Y-110490000D02*
X111760000Y-113030000D01*
X137033000Y-104267000D02*
X139446000Y-104267000D01*
X135890000Y-105410000D02*
X137033000Y-104267000D01*
X135890000Y-113030000D02*
X135890000Y-105410000D01*
X111760000Y-113030000D02*
X135890000Y-113030000D01*
X107950000Y-110490000D02*
X107950000Y-114300000D01*
X137287000Y-106807000D02*
X139446000Y-106807000D01*
X137160000Y-106680000D02*
X137287000Y-106807000D01*
X137160000Y-113030000D02*
X137160000Y-106680000D01*
X135890000Y-114300000D02*
X137160000Y-113030000D01*
X107950000Y-114300000D02*
X135890000Y-114300000D01*
X154686000Y-78867000D02*
X149987000Y-78867000D01*
X149860000Y-78740000D02*
X149860000Y-64770000D01*
X149987000Y-78867000D02*
X149860000Y-78740000D01*
X149860000Y-64770000D02*
X149860000Y-62230000D01*
X110490000Y-62230000D02*
X107950000Y-64770000D01*
X149860000Y-62230000D02*
X110490000Y-62230000D01*
X125730000Y-105410000D02*
X125730000Y-97790000D01*
X106680000Y-72390000D02*
X107950000Y-72390000D01*
X105410000Y-73660000D02*
X106680000Y-72390000D01*
X105410000Y-91440000D02*
X105410000Y-73660000D01*
X119380000Y-91440000D02*
X105410000Y-91440000D01*
X121920000Y-93980000D02*
X119380000Y-91440000D01*
X125730000Y-97790000D02*
X121920000Y-93980000D01*
X107950000Y-64770000D02*
X107950000Y-72390000D01*
X107950000Y-100330000D02*
X107950000Y-99060000D01*
X107950000Y-99060000D02*
X110490000Y-96520000D01*
X111760000Y-100330000D02*
X115570000Y-96520000D01*
X115570000Y-100330000D02*
X115570000Y-99060000D01*
X115570000Y-99060000D02*
X118110000Y-96520000D01*
X113030000Y-83820000D02*
X113030000Y-82550000D01*
X113030000Y-77470000D02*
X113030000Y-72390000D01*
X114300000Y-78740000D02*
X113030000Y-77470000D01*
X114300000Y-81280000D02*
X114300000Y-78740000D01*
X113030000Y-82550000D02*
X114300000Y-81280000D01*
X110490000Y-83820000D02*
X110490000Y-80010000D01*
X110490000Y-80010000D02*
X107950000Y-77470000D01*
X120650000Y-105410000D02*
X120650000Y-96520000D01*
X118110000Y-83820000D02*
X118110000Y-80010000D01*
X128270000Y-86360000D02*
X123190000Y-86360000D01*
X123190000Y-86360000D02*
X120650000Y-83820000D01*
X115570000Y-83820000D02*
X115570000Y-76200000D01*
X113030000Y-68580000D02*
X113030000Y-69850000D01*
X113030000Y-69850000D02*
X107950000Y-74930000D01*
X123190000Y-100330000D02*
X123190000Y-105410000D01*
D18*
G36*
X157353000Y-115443000D02*
X104267000Y-115443000D01*
X104267000Y-73660000D01*
X104650000Y-73660000D01*
X104650000Y-91440000D01*
X104707852Y-91730839D01*
X104872599Y-91977401D01*
X105119161Y-92142148D01*
X105410000Y-92200000D01*
X119065198Y-92200000D01*
X124970000Y-98104802D01*
X124970000Y-104212469D01*
X124939697Y-104224990D01*
X124546371Y-104617630D01*
X124460051Y-104825512D01*
X124375010Y-104619697D01*
X123982370Y-104226371D01*
X123950000Y-104212930D01*
X123950000Y-101784496D01*
X124114655Y-101716462D01*
X124574846Y-101257073D01*
X124824206Y-100656547D01*
X124824774Y-100006306D01*
X124576462Y-99405345D01*
X124117073Y-98945154D01*
X123516547Y-98695794D01*
X122866306Y-98695226D01*
X122265345Y-98943538D01*
X121805154Y-99402927D01*
X121555794Y-100003453D01*
X121555226Y-100653694D01*
X121803538Y-101254655D01*
X122262927Y-101714846D01*
X122430000Y-101784221D01*
X122430000Y-104212469D01*
X122399697Y-104224990D01*
X122006371Y-104617630D01*
X121920051Y-104825512D01*
X121835010Y-104619697D01*
X121442370Y-104226371D01*
X121410000Y-104212930D01*
X121410000Y-97992359D01*
X121583995Y-97920466D01*
X122048834Y-97456437D01*
X122300713Y-96849845D01*
X122301286Y-96193037D01*
X122050466Y-95586005D01*
X121586437Y-95121166D01*
X120979845Y-94869287D01*
X120323037Y-94868714D01*
X119716005Y-95119534D01*
X119379821Y-95455132D01*
X119046437Y-95121166D01*
X118439845Y-94869287D01*
X117783037Y-94868714D01*
X117176005Y-95119534D01*
X116839821Y-95455132D01*
X116506437Y-95121166D01*
X115899845Y-94869287D01*
X115243037Y-94868714D01*
X114636005Y-95119534D01*
X114299821Y-95455132D01*
X113966437Y-95121166D01*
X113359845Y-94869287D01*
X112703037Y-94868714D01*
X112096005Y-95119534D01*
X112045579Y-95169872D01*
X111970090Y-95052559D01*
X111757890Y-94907569D01*
X111506000Y-94856560D01*
X109474000Y-94856560D01*
X109238683Y-94900838D01*
X109022559Y-95039910D01*
X108877569Y-95252110D01*
X108826560Y-95504000D01*
X108826560Y-97108638D01*
X107412599Y-98522599D01*
X107247852Y-98769161D01*
X107229985Y-98858982D01*
X107025345Y-98943538D01*
X106565154Y-99402927D01*
X106315794Y-100003453D01*
X106315226Y-100653694D01*
X106563538Y-101254655D01*
X107022927Y-101714846D01*
X107623453Y-101964206D01*
X108273694Y-101964774D01*
X108874655Y-101716462D01*
X109334846Y-101257073D01*
X109584206Y-100656547D01*
X109584774Y-100006306D01*
X109336462Y-99405345D01*
X109008246Y-99076556D01*
X109901362Y-98183440D01*
X111506000Y-98183440D01*
X111741317Y-98139162D01*
X111957441Y-98000090D01*
X112045713Y-97870900D01*
X112093563Y-97918834D01*
X112700155Y-98170713D01*
X112844359Y-98170839D01*
X112251083Y-98764115D01*
X112086547Y-98695794D01*
X111436306Y-98695226D01*
X110835345Y-98943538D01*
X110375154Y-99402927D01*
X110125794Y-100003453D01*
X110125226Y-100653694D01*
X110373538Y-101254655D01*
X110832927Y-101714846D01*
X111433453Y-101964206D01*
X112083694Y-101964774D01*
X112684655Y-101716462D01*
X113144846Y-101257073D01*
X113394206Y-100656547D01*
X113394774Y-100006306D01*
X113325691Y-99839111D01*
X115066286Y-98098516D01*
X115240155Y-98170713D01*
X115384359Y-98170839D01*
X115032599Y-98522599D01*
X114867852Y-98769161D01*
X114849985Y-98858982D01*
X114645345Y-98943538D01*
X114185154Y-99402927D01*
X113935794Y-100003453D01*
X113935226Y-100653694D01*
X114183538Y-101254655D01*
X114642927Y-101714846D01*
X115243453Y-101964206D01*
X115893694Y-101964774D01*
X116494655Y-101716462D01*
X116954846Y-101257073D01*
X117204206Y-100656547D01*
X117204774Y-100006306D01*
X116956462Y-99405345D01*
X116628246Y-99076556D01*
X117606286Y-98098516D01*
X117780155Y-98170713D01*
X118436963Y-98171286D01*
X119043995Y-97920466D01*
X119380179Y-97584868D01*
X119713563Y-97918834D01*
X119890000Y-97992097D01*
X119890000Y-104212469D01*
X119859697Y-104224990D01*
X119466371Y-104617630D01*
X119253243Y-105130900D01*
X119252758Y-105686661D01*
X119464990Y-106200303D01*
X119857630Y-106593629D01*
X120370900Y-106806757D01*
X120926661Y-106807242D01*
X121440303Y-106595010D01*
X121833629Y-106202370D01*
X121919949Y-105994488D01*
X122004990Y-106200303D01*
X122397630Y-106593629D01*
X122910900Y-106806757D01*
X123466661Y-106807242D01*
X123980303Y-106595010D01*
X124373629Y-106202370D01*
X124459949Y-105994488D01*
X124544990Y-106200303D01*
X124937630Y-106593629D01*
X125450900Y-106806757D01*
X126006661Y-106807242D01*
X126520303Y-106595010D01*
X126913629Y-106202370D01*
X127126757Y-105689100D01*
X127127242Y-105133339D01*
X126915010Y-104619697D01*
X126522370Y-104226371D01*
X126490000Y-104212930D01*
X126490000Y-97790000D01*
X126432148Y-97499161D01*
X126267401Y-97252599D01*
X119917401Y-90902599D01*
X119670839Y-90737852D01*
X119380000Y-90680000D01*
X106170000Y-90680000D01*
X106170000Y-73974802D01*
X106864657Y-73280145D01*
X107157630Y-73573629D01*
X107365512Y-73659949D01*
X107159697Y-73744990D01*
X106766371Y-74137630D01*
X106553243Y-74650900D01*
X106552758Y-75206661D01*
X106764990Y-75720303D01*
X107157630Y-76113629D01*
X107365512Y-76199949D01*
X107159697Y-76284990D01*
X106766371Y-76677630D01*
X106553243Y-77190900D01*
X106552758Y-77746661D01*
X106764990Y-78260303D01*
X107157630Y-78653629D01*
X107670900Y-78866757D01*
X108226661Y-78867242D01*
X108259055Y-78853857D01*
X109730000Y-80324802D01*
X109730000Y-82347641D01*
X109556005Y-82419534D01*
X109091166Y-82883563D01*
X108839287Y-83490155D01*
X108838714Y-84146963D01*
X109089534Y-84753995D01*
X109553563Y-85218834D01*
X110160155Y-85470713D01*
X110816963Y-85471286D01*
X111423995Y-85220466D01*
X111760179Y-84884868D01*
X112093563Y-85218834D01*
X112700155Y-85470713D01*
X113356963Y-85471286D01*
X113963995Y-85220466D01*
X114300179Y-84884868D01*
X114633563Y-85218834D01*
X115240155Y-85470713D01*
X115896963Y-85471286D01*
X116503995Y-85220466D01*
X116840179Y-84884868D01*
X117173563Y-85218834D01*
X117780155Y-85470713D01*
X118436963Y-85471286D01*
X119043995Y-85220466D01*
X119380179Y-84884868D01*
X119713563Y-85218834D01*
X120320155Y-85470713D01*
X120976963Y-85471286D01*
X121153529Y-85398331D01*
X122652599Y-86897401D01*
X122899160Y-87062148D01*
X122947414Y-87071746D01*
X123190000Y-87120000D01*
X126815504Y-87120000D01*
X126883538Y-87284655D01*
X127342927Y-87744846D01*
X127943453Y-87994206D01*
X128593694Y-87994774D01*
X129194655Y-87746462D01*
X129654846Y-87287073D01*
X129904206Y-86686547D01*
X129904343Y-86529145D01*
X130050000Y-86674802D01*
X130050000Y-93980000D01*
X130107852Y-94270839D01*
X130272599Y-94517401D01*
X130399599Y-94644401D01*
X130646161Y-94809148D01*
X130937000Y-94867000D01*
X138001352Y-94867000D01*
X138201585Y-95166670D01*
X138516366Y-95377000D01*
X138201585Y-95587330D01*
X138086211Y-95760000D01*
X129724496Y-95760000D01*
X129656462Y-95595345D01*
X129197073Y-95135154D01*
X128596547Y-94885794D01*
X127946306Y-94885226D01*
X127345345Y-95133538D01*
X126885154Y-95592927D01*
X126635794Y-96193453D01*
X126635226Y-96843694D01*
X126883538Y-97444655D01*
X127342927Y-97904846D01*
X127943453Y-98154206D01*
X128593694Y-98154774D01*
X129194655Y-97906462D01*
X129654846Y-97447073D01*
X129724221Y-97280000D01*
X137916493Y-97280000D01*
X138201585Y-97706670D01*
X138516366Y-97917000D01*
X138201585Y-98127330D01*
X138001352Y-98427000D01*
X135763000Y-98427000D01*
X135472161Y-98484852D01*
X135225599Y-98649599D01*
X134603274Y-99271924D01*
X134277073Y-98945154D01*
X133676547Y-98695794D01*
X133026306Y-98695226D01*
X132425345Y-98943538D01*
X131965154Y-99402927D01*
X131715794Y-100003453D01*
X131715226Y-100653694D01*
X131963538Y-101254655D01*
X132422927Y-101714846D01*
X133023453Y-101964206D01*
X133673694Y-101964774D01*
X134274655Y-101716462D01*
X134734846Y-101257073D01*
X134820807Y-101050057D01*
X134910839Y-101032148D01*
X135157401Y-100867401D01*
X136077802Y-99947000D01*
X138001352Y-99947000D01*
X138201585Y-100246670D01*
X138516366Y-100457000D01*
X138201585Y-100667330D01*
X137876729Y-101153511D01*
X137762655Y-101727000D01*
X137838838Y-102110000D01*
X137160000Y-102110000D01*
X136917414Y-102158254D01*
X136869160Y-102167852D01*
X136622599Y-102332599D01*
X134082599Y-104872599D01*
X133917852Y-105119161D01*
X133860000Y-105410000D01*
X133860000Y-109730000D01*
X117024496Y-109730000D01*
X116956462Y-109565345D01*
X116497073Y-109105154D01*
X115896547Y-108855794D01*
X115246306Y-108855226D01*
X114645345Y-109103538D01*
X114185154Y-109562927D01*
X113935794Y-110163453D01*
X113935226Y-110813694D01*
X114183538Y-111414655D01*
X114642927Y-111874846D01*
X115243453Y-112124206D01*
X115893694Y-112124774D01*
X116494655Y-111876462D01*
X116954846Y-111417073D01*
X117024221Y-111250000D01*
X134620000Y-111250000D01*
X134910839Y-111192148D01*
X135130000Y-111045710D01*
X135130000Y-112270000D01*
X112520000Y-112270000D01*
X112520000Y-111944496D01*
X112684655Y-111876462D01*
X113144846Y-111417073D01*
X113394206Y-110816547D01*
X113394774Y-110166306D01*
X113146462Y-109565345D01*
X112687073Y-109105154D01*
X112086547Y-108855794D01*
X111436306Y-108855226D01*
X110835345Y-109103538D01*
X110375154Y-109562927D01*
X110125794Y-110163453D01*
X110125226Y-110813694D01*
X110373538Y-111414655D01*
X110832927Y-111874846D01*
X111000000Y-111944221D01*
X111000000Y-113030000D01*
X111057852Y-113320839D01*
X111204290Y-113540000D01*
X108710000Y-113540000D01*
X108710000Y-111944496D01*
X108874655Y-111876462D01*
X109334846Y-111417073D01*
X109584206Y-110816547D01*
X109584774Y-110166306D01*
X109336462Y-109565345D01*
X108877073Y-109105154D01*
X108276547Y-108855794D01*
X107626306Y-108855226D01*
X107025345Y-109103538D01*
X106565154Y-109562927D01*
X106315794Y-110163453D01*
X106315226Y-110813694D01*
X106563538Y-111414655D01*
X107022927Y-111874846D01*
X107190000Y-111944221D01*
X107190000Y-114300000D01*
X107247852Y-114590839D01*
X107412599Y-114837401D01*
X107659161Y-115002148D01*
X107950000Y-115060000D01*
X135890000Y-115060000D01*
X136180839Y-115002148D01*
X136427401Y-114837401D01*
X137697401Y-113567401D01*
X137862148Y-113320840D01*
X137920000Y-113030000D01*
X137920000Y-110514765D01*
X138365495Y-110961039D01*
X139065410Y-111251668D01*
X139823265Y-111252330D01*
X140523686Y-110962922D01*
X141060039Y-110427505D01*
X141350668Y-109727590D01*
X141351330Y-108969735D01*
X141061922Y-108269314D01*
X140672158Y-107878869D01*
X140690415Y-107866670D01*
X141015271Y-107380489D01*
X141129345Y-106807000D01*
X141015271Y-106233511D01*
X140690415Y-105747330D01*
X140375634Y-105537000D01*
X140690415Y-105326670D01*
X141015271Y-104840489D01*
X141129345Y-104267000D01*
X141015271Y-103693511D01*
X140690415Y-103207330D01*
X140375634Y-102997000D01*
X140690415Y-102786670D01*
X141015271Y-102300489D01*
X141129345Y-101727000D01*
X141015271Y-101153511D01*
X140690415Y-100667330D01*
X140375634Y-100457000D01*
X140690415Y-100246670D01*
X141015271Y-99760489D01*
X141129345Y-99187000D01*
X141015271Y-98613511D01*
X140690415Y-98127330D01*
X140375634Y-97917000D01*
X140690415Y-97706670D01*
X141015271Y-97220489D01*
X141129345Y-96647000D01*
X141015271Y-96073511D01*
X140690415Y-95587330D01*
X140375634Y-95377000D01*
X140690415Y-95166670D01*
X141015271Y-94680489D01*
X141129345Y-94107000D01*
X141015271Y-93533511D01*
X140690415Y-93047330D01*
X140375634Y-92837000D01*
X140690415Y-92626670D01*
X141015271Y-92140489D01*
X141129345Y-91567000D01*
X141015271Y-90993511D01*
X140690415Y-90507330D01*
X140375634Y-90297000D01*
X140690415Y-90086670D01*
X141015271Y-89600489D01*
X141129345Y-89027000D01*
X141015271Y-88453511D01*
X140690415Y-87967330D01*
X140375634Y-87757000D01*
X140690415Y-87546670D01*
X141015271Y-87060489D01*
X141129345Y-86487000D01*
X141015271Y-85913511D01*
X140690415Y-85427330D01*
X140375634Y-85217000D01*
X140690415Y-85006670D01*
X140890648Y-84707000D01*
X143383000Y-84707000D01*
X143673839Y-84649148D01*
X143920401Y-84484401D01*
X147857401Y-80547401D01*
X148022148Y-80300839D01*
X148080000Y-80010000D01*
X148080000Y-65967531D01*
X148110303Y-65955010D01*
X148503629Y-65562370D01*
X148589949Y-65354488D01*
X148674990Y-65560303D01*
X149067630Y-65953629D01*
X149100000Y-65967070D01*
X149100000Y-78740000D01*
X149157852Y-79030839D01*
X149322599Y-79277401D01*
X149449599Y-79404401D01*
X149696161Y-79569148D01*
X149987000Y-79627000D01*
X153241352Y-79627000D01*
X153441585Y-79926670D01*
X153756366Y-80137000D01*
X153441585Y-80347330D01*
X153116729Y-80833511D01*
X153002655Y-81407000D01*
X153116729Y-81980489D01*
X153441585Y-82466670D01*
X153756366Y-82677000D01*
X153441585Y-82887330D01*
X153116729Y-83373511D01*
X153002655Y-83947000D01*
X153116729Y-84520489D01*
X153441585Y-85006670D01*
X153756366Y-85217000D01*
X153441585Y-85427330D01*
X153116729Y-85913511D01*
X153002655Y-86487000D01*
X153116729Y-87060489D01*
X153441585Y-87546670D01*
X153756366Y-87757000D01*
X153441585Y-87967330D01*
X153116729Y-88453511D01*
X153002655Y-89027000D01*
X153116729Y-89600489D01*
X153441585Y-90086670D01*
X153756366Y-90297000D01*
X153441585Y-90507330D01*
X153116729Y-90993511D01*
X153002655Y-91567000D01*
X153116729Y-92140489D01*
X153441585Y-92626670D01*
X153756366Y-92837000D01*
X153441585Y-93047330D01*
X153116729Y-93533511D01*
X153002655Y-94107000D01*
X153116729Y-94680489D01*
X153441585Y-95166670D01*
X153756366Y-95377000D01*
X153441585Y-95587330D01*
X153116729Y-96073511D01*
X153002655Y-96647000D01*
X153116729Y-97220489D01*
X153441585Y-97706670D01*
X153756366Y-97917000D01*
X153441585Y-98127330D01*
X153116729Y-98613511D01*
X153002655Y-99187000D01*
X153116729Y-99760489D01*
X153441585Y-100246670D01*
X153756366Y-100457000D01*
X153441585Y-100667330D01*
X153116729Y-101153511D01*
X153002655Y-101727000D01*
X153116729Y-102300489D01*
X153441585Y-102786670D01*
X153756366Y-102997000D01*
X153441585Y-103207330D01*
X153116729Y-103693511D01*
X153002655Y-104267000D01*
X153116729Y-104840489D01*
X153441585Y-105326670D01*
X153756366Y-105537000D01*
X153441585Y-105747330D01*
X153116729Y-106233511D01*
X153002655Y-106807000D01*
X153116729Y-107380489D01*
X153441585Y-107866670D01*
X153460095Y-107879038D01*
X153071961Y-108266495D01*
X152781332Y-108966410D01*
X152780670Y-109724265D01*
X153070078Y-110424686D01*
X153605495Y-110961039D01*
X154305410Y-111251668D01*
X155063265Y-111252330D01*
X155763686Y-110962922D01*
X156300039Y-110427505D01*
X156590668Y-109727590D01*
X156591330Y-108969735D01*
X156301922Y-108269314D01*
X155912158Y-107878869D01*
X155930415Y-107866670D01*
X156255271Y-107380489D01*
X156369345Y-106807000D01*
X156255271Y-106233511D01*
X155930415Y-105747330D01*
X155615634Y-105537000D01*
X155930415Y-105326670D01*
X156255271Y-104840489D01*
X156369345Y-104267000D01*
X156255271Y-103693511D01*
X155930415Y-103207330D01*
X155615634Y-102997000D01*
X155930415Y-102786670D01*
X156255271Y-102300489D01*
X156369345Y-101727000D01*
X156255271Y-101153511D01*
X155930415Y-100667330D01*
X155615634Y-100457000D01*
X155930415Y-100246670D01*
X156255271Y-99760489D01*
X156369345Y-99187000D01*
X156255271Y-98613511D01*
X155930415Y-98127330D01*
X155615634Y-97917000D01*
X155930415Y-97706670D01*
X156255271Y-97220489D01*
X156369345Y-96647000D01*
X156255271Y-96073511D01*
X155930415Y-95587330D01*
X155615634Y-95377000D01*
X155930415Y-95166670D01*
X156255271Y-94680489D01*
X156369345Y-94107000D01*
X156255271Y-93533511D01*
X155930415Y-93047330D01*
X155615634Y-92837000D01*
X155930415Y-92626670D01*
X156255271Y-92140489D01*
X156369345Y-91567000D01*
X156255271Y-90993511D01*
X155930415Y-90507330D01*
X155615634Y-90297000D01*
X155930415Y-90086670D01*
X156255271Y-89600489D01*
X156369345Y-89027000D01*
X156255271Y-88453511D01*
X155930415Y-87967330D01*
X155615634Y-87757000D01*
X155930415Y-87546670D01*
X156255271Y-87060489D01*
X156369345Y-86487000D01*
X156255271Y-85913511D01*
X155930415Y-85427330D01*
X155615634Y-85217000D01*
X155930415Y-85006670D01*
X156255271Y-84520489D01*
X156369345Y-83947000D01*
X156255271Y-83373511D01*
X155930415Y-82887330D01*
X155615634Y-82677000D01*
X155930415Y-82466670D01*
X156255271Y-81980489D01*
X156369345Y-81407000D01*
X156255271Y-80833511D01*
X155930415Y-80347330D01*
X155615634Y-80137000D01*
X155930415Y-79926670D01*
X156255271Y-79440489D01*
X156369345Y-78867000D01*
X156255271Y-78293511D01*
X155930415Y-77807330D01*
X155615634Y-77597000D01*
X155930415Y-77386670D01*
X156255271Y-76900489D01*
X156369345Y-76327000D01*
X156255271Y-75753511D01*
X155930415Y-75267330D01*
X155620931Y-75060539D01*
X156036732Y-74689036D01*
X156290709Y-74161791D01*
X156293358Y-74146026D01*
X156172217Y-73914000D01*
X154813000Y-73914000D01*
X154813000Y-73934000D01*
X154559000Y-73934000D01*
X154559000Y-73914000D01*
X153199783Y-73914000D01*
X153078642Y-74146026D01*
X153081291Y-74161791D01*
X153335268Y-74689036D01*
X153751069Y-75060539D01*
X153441585Y-75267330D01*
X153116729Y-75753511D01*
X153002655Y-76327000D01*
X153116729Y-76900489D01*
X153441585Y-77386670D01*
X153756366Y-77597000D01*
X153441585Y-77807330D01*
X153241352Y-78107000D01*
X150620000Y-78107000D01*
X150620000Y-69084265D01*
X152780670Y-69084265D01*
X153070078Y-69784686D01*
X153459842Y-70175131D01*
X153441585Y-70187330D01*
X153116729Y-70673511D01*
X153002655Y-71247000D01*
X153116729Y-71820489D01*
X153441585Y-72306670D01*
X153751069Y-72513461D01*
X153335268Y-72884964D01*
X153081291Y-73412209D01*
X153078642Y-73427974D01*
X153199783Y-73660000D01*
X154559000Y-73660000D01*
X154559000Y-73640000D01*
X154813000Y-73640000D01*
X154813000Y-73660000D01*
X156172217Y-73660000D01*
X156293358Y-73427974D01*
X156290709Y-73412209D01*
X156036732Y-72884964D01*
X155620931Y-72513461D01*
X155930415Y-72306670D01*
X156255271Y-71820489D01*
X156369345Y-71247000D01*
X156255271Y-70673511D01*
X155930415Y-70187330D01*
X155911905Y-70174962D01*
X156300039Y-69787505D01*
X156590668Y-69087590D01*
X156591330Y-68329735D01*
X156301922Y-67629314D01*
X155766505Y-67092961D01*
X155066590Y-66802332D01*
X154308735Y-66801670D01*
X153608314Y-67091078D01*
X153071961Y-67626495D01*
X152781332Y-68326410D01*
X152780670Y-69084265D01*
X150620000Y-69084265D01*
X150620000Y-65967531D01*
X150650303Y-65955010D01*
X151043629Y-65562370D01*
X151256757Y-65049100D01*
X151257242Y-64493339D01*
X151045010Y-63979697D01*
X150652370Y-63586371D01*
X150620000Y-63572930D01*
X150620000Y-62230000D01*
X150562148Y-61939161D01*
X150397401Y-61692599D01*
X150150839Y-61527852D01*
X149860000Y-61470000D01*
X110490000Y-61470000D01*
X110247414Y-61518254D01*
X110199160Y-61527852D01*
X109952599Y-61692599D01*
X108441083Y-63204115D01*
X108276547Y-63135794D01*
X107626306Y-63135226D01*
X107025345Y-63383538D01*
X106565154Y-63842927D01*
X106315794Y-64443453D01*
X106315226Y-65093694D01*
X106563538Y-65694655D01*
X107022927Y-66154846D01*
X107190000Y-66224221D01*
X107190000Y-71192469D01*
X107159697Y-71204990D01*
X106766371Y-71597630D01*
X106752930Y-71630000D01*
X106680000Y-71630000D01*
X106389160Y-71687852D01*
X106142599Y-71852599D01*
X104872599Y-73122599D01*
X104707852Y-73369161D01*
X104650000Y-73660000D01*
X104267000Y-73660000D01*
X104267000Y-61087000D01*
X157353000Y-61087000D01*
X157353000Y-115443000D01*
X157353000Y-115443000D01*
G37*
X157353000Y-115443000D02*
X104267000Y-115443000D01*
X104267000Y-73660000D01*
X104650000Y-73660000D01*
X104650000Y-91440000D01*
X104707852Y-91730839D01*
X104872599Y-91977401D01*
X105119161Y-92142148D01*
X105410000Y-92200000D01*
X119065198Y-92200000D01*
X124970000Y-98104802D01*
X124970000Y-104212469D01*
X124939697Y-104224990D01*
X124546371Y-104617630D01*
X124460051Y-104825512D01*
X124375010Y-104619697D01*
X123982370Y-104226371D01*
X123950000Y-104212930D01*
X123950000Y-101784496D01*
X124114655Y-101716462D01*
X124574846Y-101257073D01*
X124824206Y-100656547D01*
X124824774Y-100006306D01*
X124576462Y-99405345D01*
X124117073Y-98945154D01*
X123516547Y-98695794D01*
X122866306Y-98695226D01*
X122265345Y-98943538D01*
X121805154Y-99402927D01*
X121555794Y-100003453D01*
X121555226Y-100653694D01*
X121803538Y-101254655D01*
X122262927Y-101714846D01*
X122430000Y-101784221D01*
X122430000Y-104212469D01*
X122399697Y-104224990D01*
X122006371Y-104617630D01*
X121920051Y-104825512D01*
X121835010Y-104619697D01*
X121442370Y-104226371D01*
X121410000Y-104212930D01*
X121410000Y-97992359D01*
X121583995Y-97920466D01*
X122048834Y-97456437D01*
X122300713Y-96849845D01*
X122301286Y-96193037D01*
X122050466Y-95586005D01*
X121586437Y-95121166D01*
X120979845Y-94869287D01*
X120323037Y-94868714D01*
X119716005Y-95119534D01*
X119379821Y-95455132D01*
X119046437Y-95121166D01*
X118439845Y-94869287D01*
X117783037Y-94868714D01*
X117176005Y-95119534D01*
X116839821Y-95455132D01*
X116506437Y-95121166D01*
X115899845Y-94869287D01*
X115243037Y-94868714D01*
X114636005Y-95119534D01*
X114299821Y-95455132D01*
X113966437Y-95121166D01*
X113359845Y-94869287D01*
X112703037Y-94868714D01*
X112096005Y-95119534D01*
X112045579Y-95169872D01*
X111970090Y-95052559D01*
X111757890Y-94907569D01*
X111506000Y-94856560D01*
X109474000Y-94856560D01*
X109238683Y-94900838D01*
X109022559Y-95039910D01*
X108877569Y-95252110D01*
X108826560Y-95504000D01*
X108826560Y-97108638D01*
X107412599Y-98522599D01*
X107247852Y-98769161D01*
X107229985Y-98858982D01*
X107025345Y-98943538D01*
X106565154Y-99402927D01*
X106315794Y-100003453D01*
X106315226Y-100653694D01*
X106563538Y-101254655D01*
X107022927Y-101714846D01*
X107623453Y-101964206D01*
X108273694Y-101964774D01*
X108874655Y-101716462D01*
X109334846Y-101257073D01*
X109584206Y-100656547D01*
X109584774Y-100006306D01*
X109336462Y-99405345D01*
X109008246Y-99076556D01*
X109901362Y-98183440D01*
X111506000Y-98183440D01*
X111741317Y-98139162D01*
X111957441Y-98000090D01*
X112045713Y-97870900D01*
X112093563Y-97918834D01*
X112700155Y-98170713D01*
X112844359Y-98170839D01*
X112251083Y-98764115D01*
X112086547Y-98695794D01*
X111436306Y-98695226D01*
X110835345Y-98943538D01*
X110375154Y-99402927D01*
X110125794Y-100003453D01*
X110125226Y-100653694D01*
X110373538Y-101254655D01*
X110832927Y-101714846D01*
X111433453Y-101964206D01*
X112083694Y-101964774D01*
X112684655Y-101716462D01*
X113144846Y-101257073D01*
X113394206Y-100656547D01*
X113394774Y-100006306D01*
X113325691Y-99839111D01*
X115066286Y-98098516D01*
X115240155Y-98170713D01*
X115384359Y-98170839D01*
X115032599Y-98522599D01*
X114867852Y-98769161D01*
X114849985Y-98858982D01*
X114645345Y-98943538D01*
X114185154Y-99402927D01*
X113935794Y-100003453D01*
X113935226Y-100653694D01*
X114183538Y-101254655D01*
X114642927Y-101714846D01*
X115243453Y-101964206D01*
X115893694Y-101964774D01*
X116494655Y-101716462D01*
X116954846Y-101257073D01*
X117204206Y-100656547D01*
X117204774Y-100006306D01*
X116956462Y-99405345D01*
X116628246Y-99076556D01*
X117606286Y-98098516D01*
X117780155Y-98170713D01*
X118436963Y-98171286D01*
X119043995Y-97920466D01*
X119380179Y-97584868D01*
X119713563Y-97918834D01*
X119890000Y-97992097D01*
X119890000Y-104212469D01*
X119859697Y-104224990D01*
X119466371Y-104617630D01*
X119253243Y-105130900D01*
X119252758Y-105686661D01*
X119464990Y-106200303D01*
X119857630Y-106593629D01*
X120370900Y-106806757D01*
X120926661Y-106807242D01*
X121440303Y-106595010D01*
X121833629Y-106202370D01*
X121919949Y-105994488D01*
X122004990Y-106200303D01*
X122397630Y-106593629D01*
X122910900Y-106806757D01*
X123466661Y-106807242D01*
X123980303Y-106595010D01*
X124373629Y-106202370D01*
X124459949Y-105994488D01*
X124544990Y-106200303D01*
X124937630Y-106593629D01*
X125450900Y-106806757D01*
X126006661Y-106807242D01*
X126520303Y-106595010D01*
X126913629Y-106202370D01*
X127126757Y-105689100D01*
X127127242Y-105133339D01*
X126915010Y-104619697D01*
X126522370Y-104226371D01*
X126490000Y-104212930D01*
X126490000Y-97790000D01*
X126432148Y-97499161D01*
X126267401Y-97252599D01*
X119917401Y-90902599D01*
X119670839Y-90737852D01*
X119380000Y-90680000D01*
X106170000Y-90680000D01*
X106170000Y-73974802D01*
X106864657Y-73280145D01*
X107157630Y-73573629D01*
X107365512Y-73659949D01*
X107159697Y-73744990D01*
X106766371Y-74137630D01*
X106553243Y-74650900D01*
X106552758Y-75206661D01*
X106764990Y-75720303D01*
X107157630Y-76113629D01*
X107365512Y-76199949D01*
X107159697Y-76284990D01*
X106766371Y-76677630D01*
X106553243Y-77190900D01*
X106552758Y-77746661D01*
X106764990Y-78260303D01*
X107157630Y-78653629D01*
X107670900Y-78866757D01*
X108226661Y-78867242D01*
X108259055Y-78853857D01*
X109730000Y-80324802D01*
X109730000Y-82347641D01*
X109556005Y-82419534D01*
X109091166Y-82883563D01*
X108839287Y-83490155D01*
X108838714Y-84146963D01*
X109089534Y-84753995D01*
X109553563Y-85218834D01*
X110160155Y-85470713D01*
X110816963Y-85471286D01*
X111423995Y-85220466D01*
X111760179Y-84884868D01*
X112093563Y-85218834D01*
X112700155Y-85470713D01*
X113356963Y-85471286D01*
X113963995Y-85220466D01*
X114300179Y-84884868D01*
X114633563Y-85218834D01*
X115240155Y-85470713D01*
X115896963Y-85471286D01*
X116503995Y-85220466D01*
X116840179Y-84884868D01*
X117173563Y-85218834D01*
X117780155Y-85470713D01*
X118436963Y-85471286D01*
X119043995Y-85220466D01*
X119380179Y-84884868D01*
X119713563Y-85218834D01*
X120320155Y-85470713D01*
X120976963Y-85471286D01*
X121153529Y-85398331D01*
X122652599Y-86897401D01*
X122899160Y-87062148D01*
X122947414Y-87071746D01*
X123190000Y-87120000D01*
X126815504Y-87120000D01*
X126883538Y-87284655D01*
X127342927Y-87744846D01*
X127943453Y-87994206D01*
X128593694Y-87994774D01*
X129194655Y-87746462D01*
X129654846Y-87287073D01*
X129904206Y-86686547D01*
X129904343Y-86529145D01*
X130050000Y-86674802D01*
X130050000Y-93980000D01*
X130107852Y-94270839D01*
X130272599Y-94517401D01*
X130399599Y-94644401D01*
X130646161Y-94809148D01*
X130937000Y-94867000D01*
X138001352Y-94867000D01*
X138201585Y-95166670D01*
X138516366Y-95377000D01*
X138201585Y-95587330D01*
X138086211Y-95760000D01*
X129724496Y-95760000D01*
X129656462Y-95595345D01*
X129197073Y-95135154D01*
X128596547Y-94885794D01*
X127946306Y-94885226D01*
X127345345Y-95133538D01*
X126885154Y-95592927D01*
X126635794Y-96193453D01*
X126635226Y-96843694D01*
X126883538Y-97444655D01*
X127342927Y-97904846D01*
X127943453Y-98154206D01*
X128593694Y-98154774D01*
X129194655Y-97906462D01*
X129654846Y-97447073D01*
X129724221Y-97280000D01*
X137916493Y-97280000D01*
X138201585Y-97706670D01*
X138516366Y-97917000D01*
X138201585Y-98127330D01*
X138001352Y-98427000D01*
X135763000Y-98427000D01*
X135472161Y-98484852D01*
X135225599Y-98649599D01*
X134603274Y-99271924D01*
X134277073Y-98945154D01*
X133676547Y-98695794D01*
X133026306Y-98695226D01*
X132425345Y-98943538D01*
X131965154Y-99402927D01*
X131715794Y-100003453D01*
X131715226Y-100653694D01*
X131963538Y-101254655D01*
X132422927Y-101714846D01*
X133023453Y-101964206D01*
X133673694Y-101964774D01*
X134274655Y-101716462D01*
X134734846Y-101257073D01*
X134820807Y-101050057D01*
X134910839Y-101032148D01*
X135157401Y-100867401D01*
X136077802Y-99947000D01*
X138001352Y-99947000D01*
X138201585Y-100246670D01*
X138516366Y-100457000D01*
X138201585Y-100667330D01*
X137876729Y-101153511D01*
X137762655Y-101727000D01*
X137838838Y-102110000D01*
X137160000Y-102110000D01*
X136917414Y-102158254D01*
X136869160Y-102167852D01*
X136622599Y-102332599D01*
X134082599Y-104872599D01*
X133917852Y-105119161D01*
X133860000Y-105410000D01*
X133860000Y-109730000D01*
X117024496Y-109730000D01*
X116956462Y-109565345D01*
X116497073Y-109105154D01*
X115896547Y-108855794D01*
X115246306Y-108855226D01*
X114645345Y-109103538D01*
X114185154Y-109562927D01*
X113935794Y-110163453D01*
X113935226Y-110813694D01*
X114183538Y-111414655D01*
X114642927Y-111874846D01*
X115243453Y-112124206D01*
X115893694Y-112124774D01*
X116494655Y-111876462D01*
X116954846Y-111417073D01*
X117024221Y-111250000D01*
X134620000Y-111250000D01*
X134910839Y-111192148D01*
X135130000Y-111045710D01*
X135130000Y-112270000D01*
X112520000Y-112270000D01*
X112520000Y-111944496D01*
X112684655Y-111876462D01*
X113144846Y-111417073D01*
X113394206Y-110816547D01*
X113394774Y-110166306D01*
X113146462Y-109565345D01*
X112687073Y-109105154D01*
X112086547Y-108855794D01*
X111436306Y-108855226D01*
X110835345Y-109103538D01*
X110375154Y-109562927D01*
X110125794Y-110163453D01*
X110125226Y-110813694D01*
X110373538Y-111414655D01*
X110832927Y-111874846D01*
X111000000Y-111944221D01*
X111000000Y-113030000D01*
X111057852Y-113320839D01*
X111204290Y-113540000D01*
X108710000Y-113540000D01*
X108710000Y-111944496D01*
X108874655Y-111876462D01*
X109334846Y-111417073D01*
X109584206Y-110816547D01*
X109584774Y-110166306D01*
X109336462Y-109565345D01*
X108877073Y-109105154D01*
X108276547Y-108855794D01*
X107626306Y-108855226D01*
X107025345Y-109103538D01*
X106565154Y-109562927D01*
X106315794Y-110163453D01*
X106315226Y-110813694D01*
X106563538Y-111414655D01*
X107022927Y-111874846D01*
X107190000Y-111944221D01*
X107190000Y-114300000D01*
X107247852Y-114590839D01*
X107412599Y-114837401D01*
X107659161Y-115002148D01*
X107950000Y-115060000D01*
X135890000Y-115060000D01*
X136180839Y-115002148D01*
X136427401Y-114837401D01*
X137697401Y-113567401D01*
X137862148Y-113320840D01*
X137920000Y-113030000D01*
X137920000Y-110514765D01*
X138365495Y-110961039D01*
X139065410Y-111251668D01*
X139823265Y-111252330D01*
X140523686Y-110962922D01*
X141060039Y-110427505D01*
X141350668Y-109727590D01*
X141351330Y-108969735D01*
X141061922Y-108269314D01*
X140672158Y-107878869D01*
X140690415Y-107866670D01*
X141015271Y-107380489D01*
X141129345Y-106807000D01*
X141015271Y-106233511D01*
X140690415Y-105747330D01*
X140375634Y-105537000D01*
X140690415Y-105326670D01*
X141015271Y-104840489D01*
X141129345Y-104267000D01*
X141015271Y-103693511D01*
X140690415Y-103207330D01*
X140375634Y-102997000D01*
X140690415Y-102786670D01*
X141015271Y-102300489D01*
X141129345Y-101727000D01*
X141015271Y-101153511D01*
X140690415Y-100667330D01*
X140375634Y-100457000D01*
X140690415Y-100246670D01*
X141015271Y-99760489D01*
X141129345Y-99187000D01*
X141015271Y-98613511D01*
X140690415Y-98127330D01*
X140375634Y-97917000D01*
X140690415Y-97706670D01*
X141015271Y-97220489D01*
X141129345Y-96647000D01*
X141015271Y-96073511D01*
X140690415Y-95587330D01*
X140375634Y-95377000D01*
X140690415Y-95166670D01*
X141015271Y-94680489D01*
X141129345Y-94107000D01*
X141015271Y-93533511D01*
X140690415Y-93047330D01*
X140375634Y-92837000D01*
X140690415Y-92626670D01*
X141015271Y-92140489D01*
X141129345Y-91567000D01*
X141015271Y-90993511D01*
X140690415Y-90507330D01*
X140375634Y-90297000D01*
X140690415Y-90086670D01*
X141015271Y-89600489D01*
X141129345Y-89027000D01*
X141015271Y-88453511D01*
X140690415Y-87967330D01*
X140375634Y-87757000D01*
X140690415Y-87546670D01*
X141015271Y-87060489D01*
X141129345Y-86487000D01*
X141015271Y-85913511D01*
X140690415Y-85427330D01*
X140375634Y-85217000D01*
X140690415Y-85006670D01*
X140890648Y-84707000D01*
X143383000Y-84707000D01*
X143673839Y-84649148D01*
X143920401Y-84484401D01*
X147857401Y-80547401D01*
X148022148Y-80300839D01*
X148080000Y-80010000D01*
X148080000Y-65967531D01*
X148110303Y-65955010D01*
X148503629Y-65562370D01*
X148589949Y-65354488D01*
X148674990Y-65560303D01*
X149067630Y-65953629D01*
X149100000Y-65967070D01*
X149100000Y-78740000D01*
X149157852Y-79030839D01*
X149322599Y-79277401D01*
X149449599Y-79404401D01*
X149696161Y-79569148D01*
X149987000Y-79627000D01*
X153241352Y-79627000D01*
X153441585Y-79926670D01*
X153756366Y-80137000D01*
X153441585Y-80347330D01*
X153116729Y-80833511D01*
X153002655Y-81407000D01*
X153116729Y-81980489D01*
X153441585Y-82466670D01*
X153756366Y-82677000D01*
X153441585Y-82887330D01*
X153116729Y-83373511D01*
X153002655Y-83947000D01*
X153116729Y-84520489D01*
X153441585Y-85006670D01*
X153756366Y-85217000D01*
X153441585Y-85427330D01*
X153116729Y-85913511D01*
X153002655Y-86487000D01*
X153116729Y-87060489D01*
X153441585Y-87546670D01*
X153756366Y-87757000D01*
X153441585Y-87967330D01*
X153116729Y-88453511D01*
X153002655Y-89027000D01*
X153116729Y-89600489D01*
X153441585Y-90086670D01*
X153756366Y-90297000D01*
X153441585Y-90507330D01*
X153116729Y-90993511D01*
X153002655Y-91567000D01*
X153116729Y-92140489D01*
X153441585Y-92626670D01*
X153756366Y-92837000D01*
X153441585Y-93047330D01*
X153116729Y-93533511D01*
X153002655Y-94107000D01*
X153116729Y-94680489D01*
X153441585Y-95166670D01*
X153756366Y-95377000D01*
X153441585Y-95587330D01*
X153116729Y-96073511D01*
X153002655Y-96647000D01*
X153116729Y-97220489D01*
X153441585Y-97706670D01*
X153756366Y-97917000D01*
X153441585Y-98127330D01*
X153116729Y-98613511D01*
X153002655Y-99187000D01*
X153116729Y-99760489D01*
X153441585Y-100246670D01*
X153756366Y-100457000D01*
X153441585Y-100667330D01*
X153116729Y-101153511D01*
X153002655Y-101727000D01*
X153116729Y-102300489D01*
X153441585Y-102786670D01*
X153756366Y-102997000D01*
X153441585Y-103207330D01*
X153116729Y-103693511D01*
X153002655Y-104267000D01*
X153116729Y-104840489D01*
X153441585Y-105326670D01*
X153756366Y-105537000D01*
X153441585Y-105747330D01*
X153116729Y-106233511D01*
X153002655Y-106807000D01*
X153116729Y-107380489D01*
X153441585Y-107866670D01*
X153460095Y-107879038D01*
X153071961Y-108266495D01*
X152781332Y-108966410D01*
X152780670Y-109724265D01*
X153070078Y-110424686D01*
X153605495Y-110961039D01*
X154305410Y-111251668D01*
X155063265Y-111252330D01*
X155763686Y-110962922D01*
X156300039Y-110427505D01*
X156590668Y-109727590D01*
X156591330Y-108969735D01*
X156301922Y-108269314D01*
X155912158Y-107878869D01*
X155930415Y-107866670D01*
X156255271Y-107380489D01*
X156369345Y-106807000D01*
X156255271Y-106233511D01*
X155930415Y-105747330D01*
X155615634Y-105537000D01*
X155930415Y-105326670D01*
X156255271Y-104840489D01*
X156369345Y-104267000D01*
X156255271Y-103693511D01*
X155930415Y-103207330D01*
X155615634Y-102997000D01*
X155930415Y-102786670D01*
X156255271Y-102300489D01*
X156369345Y-101727000D01*
X156255271Y-101153511D01*
X155930415Y-100667330D01*
X155615634Y-100457000D01*
X155930415Y-100246670D01*
X156255271Y-99760489D01*
X156369345Y-99187000D01*
X156255271Y-98613511D01*
X155930415Y-98127330D01*
X155615634Y-97917000D01*
X155930415Y-97706670D01*
X156255271Y-97220489D01*
X156369345Y-96647000D01*
X156255271Y-96073511D01*
X155930415Y-95587330D01*
X155615634Y-95377000D01*
X155930415Y-95166670D01*
X156255271Y-94680489D01*
X156369345Y-94107000D01*
X156255271Y-93533511D01*
X155930415Y-93047330D01*
X155615634Y-92837000D01*
X155930415Y-92626670D01*
X156255271Y-92140489D01*
X156369345Y-91567000D01*
X156255271Y-90993511D01*
X155930415Y-90507330D01*
X155615634Y-90297000D01*
X155930415Y-90086670D01*
X156255271Y-89600489D01*
X156369345Y-89027000D01*
X156255271Y-88453511D01*
X155930415Y-87967330D01*
X155615634Y-87757000D01*
X155930415Y-87546670D01*
X156255271Y-87060489D01*
X156369345Y-86487000D01*
X156255271Y-85913511D01*
X155930415Y-85427330D01*
X155615634Y-85217000D01*
X155930415Y-85006670D01*
X156255271Y-84520489D01*
X156369345Y-83947000D01*
X156255271Y-83373511D01*
X155930415Y-82887330D01*
X155615634Y-82677000D01*
X155930415Y-82466670D01*
X156255271Y-81980489D01*
X156369345Y-81407000D01*
X156255271Y-80833511D01*
X155930415Y-80347330D01*
X155615634Y-80137000D01*
X155930415Y-79926670D01*
X156255271Y-79440489D01*
X156369345Y-78867000D01*
X156255271Y-78293511D01*
X155930415Y-77807330D01*
X155615634Y-77597000D01*
X155930415Y-77386670D01*
X156255271Y-76900489D01*
X156369345Y-76327000D01*
X156255271Y-75753511D01*
X155930415Y-75267330D01*
X155620931Y-75060539D01*
X156036732Y-74689036D01*
X156290709Y-74161791D01*
X156293358Y-74146026D01*
X156172217Y-73914000D01*
X154813000Y-73914000D01*
X154813000Y-73934000D01*
X154559000Y-73934000D01*
X154559000Y-73914000D01*
X153199783Y-73914000D01*
X153078642Y-74146026D01*
X153081291Y-74161791D01*
X153335268Y-74689036D01*
X153751069Y-75060539D01*
X153441585Y-75267330D01*
X153116729Y-75753511D01*
X153002655Y-76327000D01*
X153116729Y-76900489D01*
X153441585Y-77386670D01*
X153756366Y-77597000D01*
X153441585Y-77807330D01*
X153241352Y-78107000D01*
X150620000Y-78107000D01*
X150620000Y-69084265D01*
X152780670Y-69084265D01*
X153070078Y-69784686D01*
X153459842Y-70175131D01*
X153441585Y-70187330D01*
X153116729Y-70673511D01*
X153002655Y-71247000D01*
X153116729Y-71820489D01*
X153441585Y-72306670D01*
X153751069Y-72513461D01*
X153335268Y-72884964D01*
X153081291Y-73412209D01*
X153078642Y-73427974D01*
X153199783Y-73660000D01*
X154559000Y-73660000D01*
X154559000Y-73640000D01*
X154813000Y-73640000D01*
X154813000Y-73660000D01*
X156172217Y-73660000D01*
X156293358Y-73427974D01*
X156290709Y-73412209D01*
X156036732Y-72884964D01*
X155620931Y-72513461D01*
X155930415Y-72306670D01*
X156255271Y-71820489D01*
X156369345Y-71247000D01*
X156255271Y-70673511D01*
X155930415Y-70187330D01*
X155911905Y-70174962D01*
X156300039Y-69787505D01*
X156590668Y-69087590D01*
X156591330Y-68329735D01*
X156301922Y-67629314D01*
X155766505Y-67092961D01*
X155066590Y-66802332D01*
X154308735Y-66801670D01*
X153608314Y-67091078D01*
X153071961Y-67626495D01*
X152781332Y-68326410D01*
X152780670Y-69084265D01*
X150620000Y-69084265D01*
X150620000Y-65967531D01*
X150650303Y-65955010D01*
X151043629Y-65562370D01*
X151256757Y-65049100D01*
X151257242Y-64493339D01*
X151045010Y-63979697D01*
X150652370Y-63586371D01*
X150620000Y-63572930D01*
X150620000Y-62230000D01*
X150562148Y-61939161D01*
X150397401Y-61692599D01*
X150150839Y-61527852D01*
X149860000Y-61470000D01*
X110490000Y-61470000D01*
X110247414Y-61518254D01*
X110199160Y-61527852D01*
X109952599Y-61692599D01*
X108441083Y-63204115D01*
X108276547Y-63135794D01*
X107626306Y-63135226D01*
X107025345Y-63383538D01*
X106565154Y-63842927D01*
X106315794Y-64443453D01*
X106315226Y-65093694D01*
X106563538Y-65694655D01*
X107022927Y-66154846D01*
X107190000Y-66224221D01*
X107190000Y-71192469D01*
X107159697Y-71204990D01*
X106766371Y-71597630D01*
X106752930Y-71630000D01*
X106680000Y-71630000D01*
X106389160Y-71687852D01*
X106142599Y-71852599D01*
X104872599Y-73122599D01*
X104707852Y-73369161D01*
X104650000Y-73660000D01*
X104267000Y-73660000D01*
X104267000Y-61087000D01*
X157353000Y-61087000D01*
X157353000Y-115443000D01*
G36*
X149100000Y-63572469D02*
X149069697Y-63584990D01*
X148676371Y-63977630D01*
X148590051Y-64185512D01*
X148505010Y-63979697D01*
X148112370Y-63586371D01*
X147599100Y-63373243D01*
X147043339Y-63372758D01*
X146529697Y-63584990D01*
X146136371Y-63977630D01*
X146056605Y-64169727D01*
X146002397Y-64038857D01*
X145760213Y-63969392D01*
X144959605Y-64770000D01*
X145760213Y-65570608D01*
X146002397Y-65501143D01*
X146052509Y-65360682D01*
X146134990Y-65560303D01*
X146527630Y-65953629D01*
X146560000Y-65967070D01*
X146560000Y-79695198D01*
X143068198Y-83187000D01*
X140890648Y-83187000D01*
X140690415Y-82887330D01*
X140375634Y-82677000D01*
X140690415Y-82466670D01*
X141015271Y-81980489D01*
X141129345Y-81407000D01*
X141015271Y-80833511D01*
X140690415Y-80347330D01*
X140380931Y-80140539D01*
X140796732Y-79769036D01*
X141050709Y-79241791D01*
X141053358Y-79226026D01*
X140932217Y-78994000D01*
X139573000Y-78994000D01*
X139573000Y-79014000D01*
X139319000Y-79014000D01*
X139319000Y-78994000D01*
X137959783Y-78994000D01*
X137838642Y-79226026D01*
X137841291Y-79241791D01*
X138095268Y-79769036D01*
X138511069Y-80140539D01*
X138201585Y-80347330D01*
X138001352Y-80647000D01*
X137601802Y-80647000D01*
X128152579Y-71197777D01*
X134721828Y-71197777D01*
X134853520Y-71492657D01*
X135561036Y-71764261D01*
X136318632Y-71744436D01*
X136926480Y-71492657D01*
X137036189Y-71247000D01*
X137762655Y-71247000D01*
X137876729Y-71820489D01*
X138201585Y-72306670D01*
X138516366Y-72517000D01*
X138201585Y-72727330D01*
X137876729Y-73213511D01*
X137762655Y-73787000D01*
X137876729Y-74360489D01*
X138201585Y-74846670D01*
X138516366Y-75057000D01*
X138201585Y-75267330D01*
X137876729Y-75753511D01*
X137762655Y-76327000D01*
X137876729Y-76900489D01*
X138201585Y-77386670D01*
X138511069Y-77593461D01*
X138095268Y-77964964D01*
X137841291Y-78492209D01*
X137838642Y-78507974D01*
X137959783Y-78740000D01*
X139319000Y-78740000D01*
X139319000Y-78720000D01*
X139573000Y-78720000D01*
X139573000Y-78740000D01*
X140932217Y-78740000D01*
X141053358Y-78507974D01*
X141050709Y-78492209D01*
X140796732Y-77964964D01*
X140380931Y-77593461D01*
X140690415Y-77386670D01*
X141015271Y-76900489D01*
X141129345Y-76327000D01*
X141015271Y-75753511D01*
X140690415Y-75267330D01*
X140375634Y-75057000D01*
X140690415Y-74846670D01*
X141015271Y-74360489D01*
X141129345Y-73787000D01*
X141015271Y-73213511D01*
X140690415Y-72727330D01*
X140375634Y-72517000D01*
X140690415Y-72306670D01*
X141015271Y-71820489D01*
X141129345Y-71247000D01*
X141015271Y-70673511D01*
X140690415Y-70187330D01*
X140586102Y-70117630D01*
X140614172Y-70054777D01*
X139446000Y-68886605D01*
X138277828Y-70054777D01*
X138305898Y-70117630D01*
X138201585Y-70187330D01*
X137876729Y-70673511D01*
X137762655Y-71247000D01*
X137036189Y-71247000D01*
X137058172Y-71197777D01*
X135890000Y-70029605D01*
X134721828Y-71197777D01*
X128152579Y-71197777D01*
X126490000Y-69535198D01*
X126490000Y-69521036D01*
X133975739Y-69521036D01*
X133995564Y-70278632D01*
X134247343Y-70886480D01*
X134542223Y-71018172D01*
X135710395Y-69850000D01*
X136069605Y-69850000D01*
X137237777Y-71018172D01*
X137532657Y-70886480D01*
X137804261Y-70178964D01*
X137792159Y-69716478D01*
X137803343Y-69743480D01*
X138098223Y-69875172D01*
X139266395Y-68707000D01*
X139625605Y-68707000D01*
X140793777Y-69875172D01*
X141088657Y-69743480D01*
X141360261Y-69035964D01*
X141340436Y-68278368D01*
X141088657Y-67670520D01*
X140793777Y-67538828D01*
X139625605Y-68707000D01*
X139266395Y-68707000D01*
X138098223Y-67538828D01*
X137803343Y-67670520D01*
X137531739Y-68378036D01*
X137543841Y-68840522D01*
X137532657Y-68813520D01*
X137237777Y-68681828D01*
X136069605Y-69850000D01*
X135710395Y-69850000D01*
X134542223Y-68681828D01*
X134247343Y-68813520D01*
X133975739Y-69521036D01*
X126490000Y-69521036D01*
X126490000Y-68502223D01*
X134721828Y-68502223D01*
X135890000Y-69670395D01*
X137058172Y-68502223D01*
X136926480Y-68207343D01*
X136218964Y-67935739D01*
X135461368Y-67955564D01*
X134853520Y-68207343D01*
X134721828Y-68502223D01*
X126490000Y-68502223D01*
X126490000Y-67359223D01*
X138277828Y-67359223D01*
X139446000Y-68527395D01*
X140614172Y-67359223D01*
X140482480Y-67064343D01*
X139774964Y-66792739D01*
X139017368Y-66812564D01*
X138409520Y-67064343D01*
X138277828Y-67359223D01*
X126490000Y-67359223D01*
X126490000Y-66517187D01*
X126807686Y-66385922D01*
X127344039Y-65850505D01*
X127385683Y-65750213D01*
X143979392Y-65750213D01*
X144048857Y-65992397D01*
X144572302Y-66179144D01*
X145127368Y-66151362D01*
X145511143Y-65992397D01*
X145580608Y-65750213D01*
X144780000Y-64949605D01*
X143979392Y-65750213D01*
X127385683Y-65750213D01*
X127634668Y-65150590D01*
X127635181Y-64562302D01*
X143370856Y-64562302D01*
X143398638Y-65117368D01*
X143557603Y-65501143D01*
X143799787Y-65570608D01*
X144600395Y-64770000D01*
X143799787Y-63969392D01*
X143557603Y-64038857D01*
X143370856Y-64562302D01*
X127635181Y-64562302D01*
X127635330Y-64392735D01*
X127386198Y-63789787D01*
X143979392Y-63789787D01*
X144780000Y-64590395D01*
X145580608Y-63789787D01*
X145511143Y-63547603D01*
X144987698Y-63360856D01*
X144432632Y-63388638D01*
X144048857Y-63547603D01*
X143979392Y-63789787D01*
X127386198Y-63789787D01*
X127345922Y-63692314D01*
X126810505Y-63155961D01*
X126410825Y-62990000D01*
X149100000Y-62990000D01*
X149100000Y-63572469D01*
X149100000Y-63572469D01*
G37*
X149100000Y-63572469D02*
X149069697Y-63584990D01*
X148676371Y-63977630D01*
X148590051Y-64185512D01*
X148505010Y-63979697D01*
X148112370Y-63586371D01*
X147599100Y-63373243D01*
X147043339Y-63372758D01*
X146529697Y-63584990D01*
X146136371Y-63977630D01*
X146056605Y-64169727D01*
X146002397Y-64038857D01*
X145760213Y-63969392D01*
X144959605Y-64770000D01*
X145760213Y-65570608D01*
X146002397Y-65501143D01*
X146052509Y-65360682D01*
X146134990Y-65560303D01*
X146527630Y-65953629D01*
X146560000Y-65967070D01*
X146560000Y-79695198D01*
X143068198Y-83187000D01*
X140890648Y-83187000D01*
X140690415Y-82887330D01*
X140375634Y-82677000D01*
X140690415Y-82466670D01*
X141015271Y-81980489D01*
X141129345Y-81407000D01*
X141015271Y-80833511D01*
X140690415Y-80347330D01*
X140380931Y-80140539D01*
X140796732Y-79769036D01*
X141050709Y-79241791D01*
X141053358Y-79226026D01*
X140932217Y-78994000D01*
X139573000Y-78994000D01*
X139573000Y-79014000D01*
X139319000Y-79014000D01*
X139319000Y-78994000D01*
X137959783Y-78994000D01*
X137838642Y-79226026D01*
X137841291Y-79241791D01*
X138095268Y-79769036D01*
X138511069Y-80140539D01*
X138201585Y-80347330D01*
X138001352Y-80647000D01*
X137601802Y-80647000D01*
X128152579Y-71197777D01*
X134721828Y-71197777D01*
X134853520Y-71492657D01*
X135561036Y-71764261D01*
X136318632Y-71744436D01*
X136926480Y-71492657D01*
X137036189Y-71247000D01*
X137762655Y-71247000D01*
X137876729Y-71820489D01*
X138201585Y-72306670D01*
X138516366Y-72517000D01*
X138201585Y-72727330D01*
X137876729Y-73213511D01*
X137762655Y-73787000D01*
X137876729Y-74360489D01*
X138201585Y-74846670D01*
X138516366Y-75057000D01*
X138201585Y-75267330D01*
X137876729Y-75753511D01*
X137762655Y-76327000D01*
X137876729Y-76900489D01*
X138201585Y-77386670D01*
X138511069Y-77593461D01*
X138095268Y-77964964D01*
X137841291Y-78492209D01*
X137838642Y-78507974D01*
X137959783Y-78740000D01*
X139319000Y-78740000D01*
X139319000Y-78720000D01*
X139573000Y-78720000D01*
X139573000Y-78740000D01*
X140932217Y-78740000D01*
X141053358Y-78507974D01*
X141050709Y-78492209D01*
X140796732Y-77964964D01*
X140380931Y-77593461D01*
X140690415Y-77386670D01*
X141015271Y-76900489D01*
X141129345Y-76327000D01*
X141015271Y-75753511D01*
X140690415Y-75267330D01*
X140375634Y-75057000D01*
X140690415Y-74846670D01*
X141015271Y-74360489D01*
X141129345Y-73787000D01*
X141015271Y-73213511D01*
X140690415Y-72727330D01*
X140375634Y-72517000D01*
X140690415Y-72306670D01*
X141015271Y-71820489D01*
X141129345Y-71247000D01*
X141015271Y-70673511D01*
X140690415Y-70187330D01*
X140586102Y-70117630D01*
X140614172Y-70054777D01*
X139446000Y-68886605D01*
X138277828Y-70054777D01*
X138305898Y-70117630D01*
X138201585Y-70187330D01*
X137876729Y-70673511D01*
X137762655Y-71247000D01*
X137036189Y-71247000D01*
X137058172Y-71197777D01*
X135890000Y-70029605D01*
X134721828Y-71197777D01*
X128152579Y-71197777D01*
X126490000Y-69535198D01*
X126490000Y-69521036D01*
X133975739Y-69521036D01*
X133995564Y-70278632D01*
X134247343Y-70886480D01*
X134542223Y-71018172D01*
X135710395Y-69850000D01*
X136069605Y-69850000D01*
X137237777Y-71018172D01*
X137532657Y-70886480D01*
X137804261Y-70178964D01*
X137792159Y-69716478D01*
X137803343Y-69743480D01*
X138098223Y-69875172D01*
X139266395Y-68707000D01*
X139625605Y-68707000D01*
X140793777Y-69875172D01*
X141088657Y-69743480D01*
X141360261Y-69035964D01*
X141340436Y-68278368D01*
X141088657Y-67670520D01*
X140793777Y-67538828D01*
X139625605Y-68707000D01*
X139266395Y-68707000D01*
X138098223Y-67538828D01*
X137803343Y-67670520D01*
X137531739Y-68378036D01*
X137543841Y-68840522D01*
X137532657Y-68813520D01*
X137237777Y-68681828D01*
X136069605Y-69850000D01*
X135710395Y-69850000D01*
X134542223Y-68681828D01*
X134247343Y-68813520D01*
X133975739Y-69521036D01*
X126490000Y-69521036D01*
X126490000Y-68502223D01*
X134721828Y-68502223D01*
X135890000Y-69670395D01*
X137058172Y-68502223D01*
X136926480Y-68207343D01*
X136218964Y-67935739D01*
X135461368Y-67955564D01*
X134853520Y-68207343D01*
X134721828Y-68502223D01*
X126490000Y-68502223D01*
X126490000Y-67359223D01*
X138277828Y-67359223D01*
X139446000Y-68527395D01*
X140614172Y-67359223D01*
X140482480Y-67064343D01*
X139774964Y-66792739D01*
X139017368Y-66812564D01*
X138409520Y-67064343D01*
X138277828Y-67359223D01*
X126490000Y-67359223D01*
X126490000Y-66517187D01*
X126807686Y-66385922D01*
X127344039Y-65850505D01*
X127385683Y-65750213D01*
X143979392Y-65750213D01*
X144048857Y-65992397D01*
X144572302Y-66179144D01*
X145127368Y-66151362D01*
X145511143Y-65992397D01*
X145580608Y-65750213D01*
X144780000Y-64949605D01*
X143979392Y-65750213D01*
X127385683Y-65750213D01*
X127634668Y-65150590D01*
X127635181Y-64562302D01*
X143370856Y-64562302D01*
X143398638Y-65117368D01*
X143557603Y-65501143D01*
X143799787Y-65570608D01*
X144600395Y-64770000D01*
X143799787Y-63969392D01*
X143557603Y-64038857D01*
X143370856Y-64562302D01*
X127635181Y-64562302D01*
X127635330Y-64392735D01*
X127386198Y-63789787D01*
X143979392Y-63789787D01*
X144780000Y-64590395D01*
X145580608Y-63789787D01*
X145511143Y-63547603D01*
X144987698Y-63360856D01*
X144432632Y-63388638D01*
X144048857Y-63547603D01*
X143979392Y-63789787D01*
X127386198Y-63789787D01*
X127345922Y-63692314D01*
X126810505Y-63155961D01*
X126410825Y-62990000D01*
X149100000Y-62990000D01*
X149100000Y-63572469D01*
M02*
